<svg xmlns="http://www.w3.org/2000/svg" viewBox="0 0 1440 320" style="padding-top: 100px;">
  <path fill="#ffffff" fill-opacity="1" d="M0,160L30,149.3C60,139,120,117,180,96C240,75,300,53,360,58.7C420,64,480,96,540,133.3C600,171,660,213,720,192C780,171,840,85,900,85.3C960,85,1020,171,1080,170.7C1140,171,1200,85,1260,48C1320,11,1380,21,1410,26.7L1440,32L1440,0L1410,0C1380,0,1320,0,1260,0C1200,0,1140,0,1080,0C1020,0,960,0,900,0C840,0,780,0,720,0C660,0,600,0,540,0C480,0,420,0,360,0C300,0,240,0,180,0C120,0,60,0,30,0L0,0Z"></path>
</svg>